<svg width="13" height="13" viewBox="0 0 13 13" fill="none" xmlns="http://www.w3.org/2000/svg">
<path d="M2.8 12.3334H0.133331V4.33343H2.8V12.3334ZM1.4672 3.26676C0.729598 3.26676 0.133331 2.6689 0.133331 1.9329C0.133331 1.1969 0.730665 0.600098 1.4672 0.600098C2.20213 0.600098 2.8 1.19796 2.8 1.9329C2.8 2.6689 2.20213 3.26676 1.4672 3.26676ZM12.4 12.3334H9.83626V8.4401C9.83626 7.51156 9.81866 6.31743 8.50346 6.31743C7.16853 6.31743 6.9632 7.32863 6.9632 8.3729V12.3334H4.4V4.32756H6.8608V5.42143H6.89546C7.23786 4.7921 8.07466 4.12863 9.32266 4.12863C11.92 4.12863 12.4 5.78676 12.4 7.9425C12.4 7.9425 12.4 12.3334 12.4 12.3334Z" fill="#0082C6"/>
</svg>
