<svg width="14" height="12" viewBox="0 0 14 12" fill="none" xmlns="http://www.w3.org/2000/svg">
<path d="M13.6667 1.86656C13.1656 2.08396 12.6356 2.22767 12.0933 2.29323C12.6654 1.95144 13.0942 1.41375 13.3 0.779896C12.7624 1.09994 12.1738 1.32543 11.56 1.44656C11.1497 1.00161 10.6033 0.705427 10.0065 0.604463C9.40976 0.5035 8.79636 0.603468 8.26252 0.888689C7.72869 1.17391 7.30462 1.62825 7.05682 2.18045C6.80903 2.73266 6.75152 3.35149 6.89333 3.9399C5.80628 3.88491 4.74296 3.60186 3.77243 3.10914C2.80191 2.61641 1.94589 1.92502 1.25999 1.0799C1.01942 1.50001 0.893008 1.97578 0.893328 2.4599C0.892475 2.90948 1.00281 3.35231 1.2145 3.74894C1.42619 4.14557 1.73267 4.4837 2.10666 4.73323C1.67198 4.7214 1.24659 4.60476 0.866662 4.39323V4.42656C0.86992 5.05649 1.09066 5.66596 1.49154 6.15187C1.89242 6.63779 2.44883 6.97032 3.06666 7.09323C2.82883 7.16561 2.58191 7.20377 2.33333 7.20656C2.16126 7.20455 1.98961 7.18895 1.81999 7.1599C1.99593 7.70177 2.33641 8.17533 2.79404 8.51467C3.25168 8.85401 3.80371 9.04226 4.37333 9.05323C3.41146 9.81007 2.22392 10.2231 0.999995 10.2266C0.777152 10.2273 0.554485 10.2139 0.333328 10.1866C1.58295 10.9934 3.0392 11.4217 4.52666 11.4199C5.55312 11.4306 6.57142 11.2366 7.52207 10.8493C8.47272 10.462 9.33668 9.88915 10.0635 9.16423C10.7903 8.4393 11.3653 7.57682 11.755 6.62717C12.1448 5.67751 12.3414 4.65971 12.3333 3.63323C12.3333 3.5199 12.3333 3.3999 12.3333 3.2799C12.8565 2.88977 13.3076 2.41151 13.6667 1.86656Z" fill="#0082C6"/>
</svg>
